<svg width="960" height="521" viewBox="0 0 960 521" fill="none" xmlns="http://www.w3.org/2000/svg">
<g clip-path="url(#clip0_4974_336564)">
<rect x="452.965" y="196.623" width="173.119" height="74.7242" fill="#CFCFF9"/>
<rect x="230.887" y="196.623" width="173.119" height="74.7242" rx="37.3621" fill="#6C6CFF"/>
<rect x="800.45" y="198.034" width="170.297" height="71.9025" stroke="#6C6CFF" stroke-width="2.82167"/>
<rect x="565.262" y="305.699" width="288.093" height="74.7743" rx="37.3872" fill="#CFCFF9"/>
<rect x="-106.551" y="196.623" width="288.093" height="74.7743" rx="37.3872" fill="#452AEA"/>
<circle cx="940.166" cy="343.084" r="37.8104" fill="#1F0F83"/>
<circle cx="353.33" cy="343.086" r="36.3996" stroke="#00CA72" stroke-width="2.82167"/>
<circle cx="478.451" cy="343.41" r="37.8104" fill="#6C6CFF"/>
<mask id="mask0_4974_336564" style="mask-type:alpha" maskUnits="userSpaceOnUse" x="440" y="305" width="77" height="77">
<circle cx="478.451" cy="343.411" r="37.8104" fill="#452AEA"/>
</mask>
<g mask="url(#mask0_4974_336564)">
<rect x="468.801" y="322.428" width="22.261" height="20.174" rx="2.08697" transform="rotate(5.0644 468.801 322.428)" fill="#ED7A55"/>
<circle cx="471.565" cy="325.733" r="5.82818" transform="rotate(5.0644 471.565 325.733)" fill="#CFCFF9"/>
<circle cx="478.425" cy="325.365" r="4.85682" transform="rotate(5.0644 478.425 325.365)" fill="#CFCFF9"/>
<path d="M490.217 333.461L482.108 326.457L477.156 323.225L488.936 324.269C490.085 324.371 490.933 325.384 490.831 326.532L490.217 333.461Z" fill="#CFCFF9"/>
<circle cx="491.065" cy="335.998" r="3.8968" transform="rotate(5.0644 491.065 335.998)" fill="#ED7A55"/>
<path d="M477.875 334.368L475.571 338.692C475.29 339.219 475.558 339.872 476.128 340.05L477.826 340.582" stroke="#0F1048" stroke-width="0.76254" stroke-linecap="round"/>
<rect x="430.203" y="345.108" width="94.3004" height="33.9186" transform="rotate(7.19125 430.203 345.108)" fill="#FFCC00"/>
<path d="M485.569 352.383L472.893 363.63C472.168 364.274 471.018 363.849 470.884 362.889L469.172 350.561" stroke="#0F1048" stroke-width="0.971659" stroke-linecap="round"/>
<path d="M472.242 363.867L481.657 362.827C482.272 362.759 482.738 362.239 482.738 361.619V357.444C482.738 356.773 483.282 356.229 483.952 356.229H486.057C487.08 356.229 487.645 355.043 487 354.249L485.645 352.581" stroke="#0F1048" stroke-width="0.971659" stroke-linecap="round"/>
<path d="M471.538 363.868L465.4 358.054C464.781 357.467 464.943 356.442 465.713 356.076L467.558 355.197C468.624 354.689 468.411 353.112 467.249 352.904L465.539 352.6C464.183 352.358 464.36 350.36 465.738 350.36L469.14 350.36" stroke="#0F1048" stroke-width="0.971659" stroke-linecap="round"/>
</g>
<g clip-path="url(#clip1_4974_336564)">
<path d="M712.559 198.727C691.85 198.727 675.043 215.444 675.043 236.043C675.043 254.738 688.886 270.187 706.969 272.911V245.931H697.703V236.117H706.969V229.587C706.969 218.765 712.259 214.026 721.3 214.026C725.615 214.026 727.903 214.362 728.991 214.474V223.019H722.839C719.012 223.019 717.661 226.639 717.661 230.706V236.08H728.879L727.34 245.894H717.624V272.948C735.932 270.485 750.075 254.887 750.075 236.005C750.075 215.444 733.268 198.727 712.559 198.727Z" fill="#6161FF"/>
</g>
<rect x="25.25" y="298.598" width="241.271" height="75.8637" rx="37.3353" fill="#FFCC00"/>
<rect x="56.3672" y="315.588" width="100.721" height="4.85401" rx="2.09642" fill="#CAA100"/>
<rect x="56.3672" y="333.791" width="179.598" height="4.85401" rx="2.09642" fill="#CAA100"/>
<rect x="56.3672" y="351.994" width="179.598" height="4.85401" rx="2.09642" fill="#CAA100"/>
<path d="M60.3984 372.549V387.574L75.8525 372.549H60.3984Z" fill="#FFCC00"/>
<rect x="-10.9993" y="91.5134" width="170.297" height="71.9025" stroke="#6C6CFF" stroke-width="2.82167"/>
<circle cx="36.3168" cy="36.3168" r="36.3168" transform="matrix(-1 0 0 1 282.342 91.1475)" fill="#6161FF"/>
<mask id="mask1_4974_336564" style="mask-type:alpha" maskUnits="userSpaceOnUse" x="209" y="91" width="74" height="73">
<circle cx="36.3168" cy="36.3168" r="36.3168" transform="matrix(-1 0 0 1 282.343 91.1479)" fill="#452AEA"/>
</mask>
<g mask="url(#mask1_4974_336564)">
<rect width="21.3816" height="19.3771" rx="2.00452" transform="matrix(-0.996096 0.0882754 0.0882754 0.996096 255.292 107.311)" fill="#FFA88D"/>
<circle cx="5.59795" cy="5.59795" r="5.59795" transform="matrix(-0.996096 0.0882754 0.0882754 0.996096 257.716 104.415)" fill="white"/>
<circle cx="4.66496" cy="4.66496" r="4.66496" transform="matrix(-0.996096 0.0882754 0.0882754 0.996096 250.282 105.077)" fill="white"/>
<path d="M234.717 117.908L242.505 111.18L247.261 108.076L235.946 109.078C234.844 109.176 234.029 110.149 234.127 111.252L234.717 117.908Z" fill="white"/>
<circle cx="3.74286" cy="3.74286" r="3.74286" transform="matrix(-0.996096 0.0882754 0.0882754 0.996096 237.302 116.282)" fill="#FFA98D"/>
<path d="M246.576 118.78L248.789 122.934C249.058 123.44 248.801 124.067 248.254 124.238L246.623 124.749" stroke="#0F1048" stroke-width="0.732417" stroke-linecap="round"/>
<rect width="90.5752" height="32.5787" transform="matrix(-0.992134 0.125182 0.125182 0.992134 292.366 129.097)" fill="#452AEA"/>
<path d="M239.187 136.083L251.362 146.886C252.059 147.504 253.163 147.096 253.292 146.174L254.936 134.333" stroke="#0F1048" stroke-width="0.933276" stroke-linecap="round"/>
<path d="M251.989 147.113L242.947 146.113C242.356 146.048 241.908 145.548 241.908 144.954V140.943C241.908 140.299 241.386 139.777 240.742 139.777H238.72C237.738 139.777 237.195 138.637 237.814 137.875L239.116 136.272" stroke="#0F1048" stroke-width="0.933276" stroke-linecap="round"/>
<path d="M252.666 147.112L258.562 141.528C259.156 140.965 259.001 139.98 258.261 139.628L256.489 138.784C255.465 138.296 255.669 136.781 256.786 136.582L258.428 136.289C259.731 136.057 259.561 134.138 258.238 134.138L254.97 134.138" stroke="#0F1048" stroke-width="0.933276" stroke-linecap="round"/>
</g>
<rect x="331.343" y="90.0771" width="188.488" height="74.7743" rx="37.3872" fill="#1F0F83"/>
<circle cx="606.643" cy="127.465" r="37.8104" fill="#FFCC00"/>
<mask id="mask2_4974_336564" style="mask-type:alpha" maskUnits="userSpaceOnUse" x="568" y="89" width="77" height="77">
<circle cx="606.641" cy="127.464" r="37.8104" fill="#452AEA"/>
</mask>
<g mask="url(#mask2_4974_336564)">
<rect x="574.596" y="141.814" width="66.8956" height="31.0533" rx="15.5267" transform="rotate(0.234027 574.596 141.814)" fill="#CFCFF9"/>
<circle cx="2.72041" cy="2.72041" r="2.72041" transform="matrix(-0.996096 0.0882754 0.0882754 0.996096 603.588 128.308)" fill="#B65D41"/>
<circle cx="6.00692" cy="6.00692" r="6.00692" transform="matrix(-0.986407 0.164323 0.164323 0.986407 592.811 103.432)" fill="#0F1048"/>
<circle cx="8.01093" cy="8.01093" r="8.01093" transform="matrix(-0.986407 0.164323 0.164323 0.986407 605.229 109.64)" fill="#0F1048"/>
<rect width="19.9102" height="15.369" rx="7.68449" transform="matrix(-0.985968 0.166932 0.166932 0.985968 619.596 119.583)" fill="#B65D41"/>
<mask id="mask3_4974_336564" style="mask-type:alpha" maskUnits="userSpaceOnUse" x="601" y="120" width="20" height="17">
<rect width="19.9102" height="15.369" rx="7.68449" transform="matrix(-0.985968 0.166932 0.166932 0.985968 619.604 119.582)" fill="#FFC7C7"/>
</mask>
<g mask="url(#mask3_4974_336564)">
<path d="M614.054 127.319L615.905 131.327C616.079 131.705 615.891 132.151 615.499 132.291L614.16 132.766" stroke="#0F1048" stroke-width="0.566471" stroke-linecap="round"/>
<circle cx="8.02356" cy="8.02356" r="8.02356" transform="matrix(-0.914978 0.403504 0.403504 0.914978 609.918 110.724)" fill="#0F1048"/>
<circle cx="7.16501" cy="7.16501" r="6.95016" transform="matrix(-0.914978 0.403504 0.403504 0.914978 608.48 112.297)" stroke="#FFCC00" stroke-width="0.429714"/>
<circle cx="6.8219" cy="6.8219" r="6.60705" transform="matrix(-0.914978 0.403504 0.403504 0.914978 606.939 112.53)" stroke="#FFCC00" stroke-width="0.429714"/>
<circle cx="8.02356" cy="8.02356" r="8.02356" transform="matrix(-0.914978 0.403504 0.403504 0.914978 624.642 108.067)" fill="#0F1048"/>
</g>
</g>
<path d="M620.082 141.574C620.365 146.376 616.701 150.498 611.899 150.781C607.097 151.063 602.975 147.4 602.692 142.598" stroke="#FFCC00" stroke-width="0.846502"/>
<rect x="693.453" y="83.5879" width="278.217" height="74.7743" fill="#6161FF"/>
<rect x="716.59" y="101.928" width="104.966" height="5.36118" rx="2.68059" fill="white"/>
<rect x="716.59" y="118.014" width="189.616" height="5.36118" rx="2.68059" fill="white"/>
<rect x="716.59" y="134.098" width="189.616" height="5.36118" rx="2.68059" fill="white"/>
<path d="M708.832 156.527V171.341L724.069 156.527H708.832Z" fill="#6161FF"/>
</g>
<defs>
<clipPath id="clip0_4974_336564">
<rect width="960" height="520" fill="white" transform="translate(0 0.587891)"/>
</clipPath>
<clipPath id="clip1_4974_336564">
<rect width="75.0323" height="74.2588" fill="white" transform="translate(675.043 198.727)"/>
</clipPath>
</defs>
</svg>
